<svg xmlns="http://www.w3.org/2000/svg" xmlns:xlink="http://www.w3.org/1999/xlink" width="500" zoomAndPan="magnify" viewBox="0 0 375 374.999991" height="500" preserveAspectRatio="xMidYMid meet" version="1.0"><defs><g/><clipPath id="eb3ddb3562"><path d="M 46 145.644531 L 262.890625 145.644531 L 262.890625 156 L 46 156 Z M 46 145.644531 " clip-rule="nonzero"/></clipPath><clipPath id="4287fa7217"><path d="M 46 235 L 239 235 L 239 245.394531 L 46 245.394531 Z M 46 235 " clip-rule="nonzero"/></clipPath><clipPath id="b53267170f"><path d="M 141 100 L 354 100 L 354 290 L 141 290 Z M 141 100 " clip-rule="nonzero"/></clipPath><clipPath id="5805d4e6dd"><path d="M 216.980469 67.898438 L 374.675781 165.105469 L 277.472656 322.800781 L 119.773438 225.597656 Z M 216.980469 67.898438 " clip-rule="nonzero"/></clipPath><clipPath id="e318ff5733"><path d="M 216.980469 67.898438 L 374.675781 165.105469 L 277.472656 322.800781 L 119.773438 225.597656 Z M 216.980469 67.898438 " clip-rule="nonzero"/></clipPath><clipPath id="96c566d595"><path d="M 138 97 L 357 97 L 357 293 L 138 293 Z M 138 97 " clip-rule="nonzero"/></clipPath><clipPath id="4218e7e95b"><path d="M 216.980469 67.898438 L 374.675781 165.105469 L 277.472656 322.800781 L 119.773438 225.597656 Z M 216.980469 67.898438 " clip-rule="nonzero"/></clipPath><clipPath id="bc802d47e4"><path d="M 216.980469 67.898438 L 374.675781 165.105469 L 277.472656 322.800781 L 119.773438 225.597656 Z M 216.980469 67.898438 " clip-rule="nonzero"/></clipPath><clipPath id="710921cb68"><path d="M 141 101 L 260 101 L 260 273 L 141 273 Z M 141 101 " clip-rule="nonzero"/></clipPath><clipPath id="0f6a663b16"><path d="M 216.980469 67.898438 L 374.675781 165.105469 L 277.472656 322.800781 L 119.773438 225.597656 Z M 216.980469 67.898438 " clip-rule="nonzero"/></clipPath><clipPath id="762705283e"><path d="M 216.980469 67.898438 L 374.675781 165.105469 L 277.472656 322.800781 L 119.773438 225.597656 Z M 216.980469 67.898438 " clip-rule="nonzero"/></clipPath><clipPath id="fbb46a14eb"><path d="M 200 176 L 353 176 L 353 292 L 200 292 Z M 200 176 " clip-rule="nonzero"/></clipPath><clipPath id="ef823b9d58"><path d="M 216.980469 67.898438 L 374.675781 165.105469 L 277.472656 322.800781 L 119.773438 225.597656 Z M 216.980469 67.898438 " clip-rule="nonzero"/></clipPath><clipPath id="01c73fa651"><path d="M 216.980469 67.898438 L 374.675781 165.105469 L 277.472656 322.800781 L 119.773438 225.597656 Z M 216.980469 67.898438 " clip-rule="nonzero"/></clipPath><clipPath id="2d818f879a"><path d="M 138 98 L 263 98 L 263 276 L 138 276 Z M 138 98 " clip-rule="nonzero"/></clipPath><clipPath id="d9dc8c30e4"><path d="M 216.980469 67.898438 L 374.675781 165.105469 L 277.472656 322.800781 L 119.773438 225.597656 Z M 216.980469 67.898438 " clip-rule="nonzero"/></clipPath><clipPath id="90a3fca0ff"><path d="M 216.980469 67.898438 L 374.675781 165.105469 L 277.472656 322.800781 L 119.773438 225.597656 Z M 216.980469 67.898438 " clip-rule="nonzero"/></clipPath><clipPath id="1a810b49e0"><path d="M 197 173 L 356 173 L 356 295 L 197 295 Z M 197 173 " clip-rule="nonzero"/></clipPath><clipPath id="1a42a2dacd"><path d="M 216.980469 67.898438 L 374.675781 165.105469 L 277.472656 322.800781 L 119.773438 225.597656 Z M 216.980469 67.898438 " clip-rule="nonzero"/></clipPath><clipPath id="21b621ae6e"><path d="M 216.980469 67.898438 L 374.675781 165.105469 L 277.472656 322.800781 L 119.773438 225.597656 Z M 216.980469 67.898438 " clip-rule="nonzero"/></clipPath><clipPath id="76b760f664"><path d="M 159 125 L 240 125 L 240 248 L 159 248 Z M 159 125 " clip-rule="nonzero"/></clipPath><clipPath id="80c1a4ff32"><path d="M 216.980469 67.898438 L 374.675781 165.105469 L 277.472656 322.800781 L 119.773438 225.597656 Z M 216.980469 67.898438 " clip-rule="nonzero"/></clipPath><clipPath id="a7af031007"><path d="M 216.980469 67.898438 L 374.675781 165.105469 L 277.472656 322.800781 L 119.773438 225.597656 Z M 216.980469 67.898438 " clip-rule="nonzero"/></clipPath><clipPath id="437dd6e8b5"><path d="M 219 125 L 283 125 L 283 158 L 219 158 Z M 219 125 " clip-rule="nonzero"/></clipPath><clipPath id="5eca66dab3"><path d="M 216.980469 67.898438 L 374.675781 165.105469 L 277.472656 322.800781 L 119.773438 225.597656 Z M 216.980469 67.898438 " clip-rule="nonzero"/></clipPath><clipPath id="78cd1c20e2"><path d="M 216.980469 67.898438 L 374.675781 165.105469 L 277.472656 322.800781 L 119.773438 225.597656 Z M 216.980469 67.898438 " clip-rule="nonzero"/></clipPath><clipPath id="45924082fb"><path d="M 278 134 L 332 134 L 332 166 L 278 166 Z M 278 134 " clip-rule="nonzero"/></clipPath><clipPath id="b776da1992"><path d="M 216.980469 67.898438 L 374.675781 165.105469 L 277.472656 322.800781 L 119.773438 225.597656 Z M 216.980469 67.898438 " clip-rule="nonzero"/></clipPath><clipPath id="1fa80460b2"><path d="M 216.980469 67.898438 L 374.675781 165.105469 L 277.472656 322.800781 L 119.773438 225.597656 Z M 216.980469 67.898438 " clip-rule="nonzero"/></clipPath><clipPath id="9c3656ae7c"><path d="M 222 231 L 247 231 L 247 265 L 222 265 Z M 222 231 " clip-rule="nonzero"/></clipPath><clipPath id="cfae8974cc"><path d="M 216.980469 67.898438 L 374.675781 165.105469 L 277.472656 322.800781 L 119.773438 225.597656 Z M 216.980469 67.898438 " clip-rule="nonzero"/></clipPath><clipPath id="3bb6a17365"><path d="M 216.980469 67.898438 L 374.675781 165.105469 L 277.472656 322.800781 L 119.773438 225.597656 Z M 216.980469 67.898438 " clip-rule="nonzero"/></clipPath><clipPath id="6e4cec143f"><path d="M 240 237 L 264 237 L 264 269 L 240 269 Z M 240 237 " clip-rule="nonzero"/></clipPath><clipPath id="5acda6333f"><path d="M 216.980469 67.898438 L 374.675781 165.105469 L 277.472656 322.800781 L 119.773438 225.597656 Z M 216.980469 67.898438 " clip-rule="nonzero"/></clipPath><clipPath id="4ad6cfd4cb"><path d="M 216.980469 67.898438 L 374.675781 165.105469 L 277.472656 322.800781 L 119.773438 225.597656 Z M 216.980469 67.898438 " clip-rule="nonzero"/></clipPath></defs><path fill="#ffffff" d="M 211.917969 173.402344 C 217.691406 173.402344 222.394531 171.261719 222.394531 168.546875 C 222.394531 165.832031 217.691406 163.691406 211.917969 163.691406 L 24.546875 168.546875 Z M 211.917969 173.402344 " fill-opacity="1" fill-rule="nonzero"/><path fill="#ffffff" d="M 186.953125 191.484375 C 192.726562 191.484375 197.429688 189.34375 197.429688 186.628906 C 197.429688 183.914062 192.726562 181.773438 186.953125 181.773438 L -44.609375 186.628906 Z M 186.953125 191.484375 " fill-opacity="1" fill-rule="nonzero"/><g clip-path="url(#eb3ddb3562)"><path fill="#ffffff" d="M 252.632812 145.648438 L 46.339844 150.503906 L 252.632812 155.359375 C 258.445312 155.359375 263.109375 153.214844 263.109375 150.503906 C 263.148438 147.824219 258.40625 145.648438 252.632812 145.648438 Z M 252.632812 145.648438 " fill-opacity="1" fill-rule="nonzero"/></g><path fill="#ffffff" d="M 181.066406 209.53125 C 186.839844 209.53125 191.503906 207.390625 191.539062 204.675781 C 191.539062 202 186.839844 199.820312 181.066406 199.820312 L -21.558594 204.675781 Z M 181.066406 209.53125 " fill-opacity="1" fill-rule="nonzero"/><path fill="#ffffff" d="M 198.878906 227.574219 C 204.652344 227.574219 209.355469 225.433594 209.355469 222.71875 C 209.355469 220.042969 204.652344 217.863281 198.878906 217.863281 L 1.535156 222.71875 Z M 198.878906 227.574219 " fill-opacity="1" fill-rule="nonzero"/><g clip-path="url(#4287fa7217)"><path fill="#ffffff" d="M 228.128906 235.949219 L 46.339844 240.804688 L 228.128906 245.660156 C 233.9375 245.660156 238.601562 243.519531 238.601562 240.804688 C 238.640625 238.089844 233.863281 235.949219 228.128906 235.949219 Z M 228.128906 235.949219 " fill-opacity="1" fill-rule="nonzero"/></g><g clip-path="url(#b53267170f)"><g clip-path="url(#5805d4e6dd)"><g clip-path="url(#e318ff5733)"><path fill="#f8a212" d="M 294.367188 119.207031 L 200.890625 100.167969 L 141.828125 195.984375 L 235.308594 215.023438 L 294.320312 289.976562 L 353.378906 194.160156 L 294.367188 119.207031 " fill-opacity="1" fill-rule="nonzero"/></g></g></g><g clip-path="url(#96c566d595)"><g clip-path="url(#4218e7e95b)"><g clip-path="url(#bc802d47e4)"><path fill="#273f4f" d="M 202.339844 103.519531 L 146.625 193.90625 L 235.902344 212.09375 C 236.597656 212.234375 237.21875 212.613281 237.65625 213.171875 L 294.019531 284.761719 L 349.734375 194.371094 L 292.695312 121.917969 Z M 292.75 292.523438 C 292.453125 292.339844 292.1875 292.105469 291.96875 291.828125 L 233.636719 217.734375 L 141.234375 198.914062 C 140.273438 198.71875 139.472656 198.070312 139.085938 197.171875 C 138.695312 196.277344 138.769531 195.246094 139.285156 194.414062 L 198.34375 98.601562 C 199 97.535156 200.253906 96.988281 201.484375 97.238281 L 294.964844 116.277344 C 295.65625 116.417969 296.277344 116.800781 296.71875 117.359375 L 355.726562 192.3125 C 356.5 193.296875 356.582031 194.664062 355.921875 195.734375 L 296.863281 291.546875 C 296.351562 292.378906 295.464844 292.90625 294.492188 292.960938 C 293.867188 293 293.261719 292.839844 292.75 292.523438 " fill-opacity="1" fill-rule="nonzero"/></g></g></g><g clip-path="url(#710921cb68)"><g clip-path="url(#0f6a663b16)"><g clip-path="url(#762705283e)"><path fill="#f8a212" d="M 259.199219 176.265625 L 200.1875 101.308594 L 141.128906 197.125 L 200.136719 272.078125 L 259.199219 176.265625 " fill-opacity="1" fill-rule="nonzero"/></g></g></g><g clip-path="url(#fbb46a14eb)"><g clip-path="url(#ef823b9d58)"><g clip-path="url(#01c73fa651)"><path fill="#c97e1b" d="M 259.199219 176.265625 L 352.675781 195.304688 L 293.617188 291.117188 L 200.136719 272.078125 L 259.199219 176.265625 " fill-opacity="1" fill-rule="nonzero"/></g></g></g><g clip-path="url(#2d818f879a)"><g clip-path="url(#d9dc8c30e4)"><g clip-path="url(#90a3fca0ff)"><path fill="#273f4f" d="M 144.769531 196.914062 L 199.839844 266.863281 L 255.554688 176.472656 L 200.484375 106.527344 Z M 198.570312 274.625 C 198.273438 274.441406 198.007812 274.207031 197.785156 273.929688 L 138.777344 198.972656 C 138 197.988281 137.921875 196.621094 138.582031 195.554688 L 197.640625 99.742188 C 198.152344 98.910156 199.039062 98.378906 200.015625 98.324219 C 200.992188 98.269531 201.933594 98.691406 202.535156 99.460938 L 261.546875 174.414062 C 262.324219 175.398438 262.402344 176.765625 261.742188 177.832031 L 202.683594 273.648438 C 202.171875 274.480469 201.285156 275.007812 200.308594 275.0625 C 199.691406 275.097656 199.082031 274.941406 198.570312 274.625 " fill-opacity="1" fill-rule="nonzero"/></g></g></g><g clip-path="url(#1a810b49e0)"><g clip-path="url(#1a42a2dacd)"><g clip-path="url(#21b621ae6e)"><path fill="#273f4f" d="M 260.648438 179.613281 L 204.929688 270.003906 L 292.164062 287.769531 L 347.882812 197.378906 Z M 198.570312 274.625 C 198.054688 274.308594 197.640625 273.835938 197.394531 273.265625 C 197.003906 272.371094 197.078125 271.339844 197.59375 270.507812 L 256.652344 174.695312 C 257.308594 173.625 258.566406 173.082031 259.792969 173.335938 L 353.269531 192.371094 C 354.230469 192.566406 355.027344 193.214844 355.421875 194.113281 C 355.804688 195.011719 355.734375 196.042969 355.21875 196.871094 L 296.160156 292.6875 C 295.503906 293.753906 294.246094 294.296875 293.015625 294.046875 L 199.542969 275.011719 C 199.191406 274.9375 198.863281 274.804688 198.570312 274.625 " fill-opacity="1" fill-rule="nonzero"/></g></g></g><g clip-path="url(#76b760f664)"><g clip-path="url(#80c1a4ff32)"><g clip-path="url(#a7af031007)"><path fill="#273f4f" d="M 239.097656 151.789062 L 219.050781 125.269531 L 159.992188 221.082031 L 180.402344 247.011719 L 239.097656 151.789062 " fill-opacity="1" fill-rule="nonzero"/></g></g></g><g clip-path="url(#437dd6e8b5)"><g clip-path="url(#5eca66dab3)"><g clip-path="url(#78cd1c20e2)"><path fill="#273f4f" d="M 277.78125 154.023438 L 279.90625 151.292969 L 275.15625 149.3125 L 276.40625 146.101562 L 271.789062 144.011719 L 273.300781 141.40625 L 268.957031 139.992188 L 270.496094 136.832031 L 264.773438 134.570312 L 266.269531 132.144531 L 219.050781 125.269531 L 239.097656 151.789062 L 282.699219 157.609375 L 277.78125 154.023438 " fill-opacity="1" fill-rule="nonzero"/></g></g></g><g clip-path="url(#45924082fb)"><g clip-path="url(#b776da1992)"><g clip-path="url(#1fa80460b2)"><path fill="#273f4f" d="M 283.433594 137.792969 L 281.308594 140.527344 L 286.058594 142.511719 L 284.804688 145.71875 L 289.425781 147.808594 L 287.914062 150.414062 L 292.257812 151.828125 L 290.71875 154.988281 L 296.441406 157.25 L 294.945312 159.675781 L 331.738281 165.925781 L 311.6875 139.40625 L 278.519531 134.210938 L 283.433594 137.792969 " fill-opacity="1" fill-rule="nonzero"/></g></g></g><g clip-path="url(#9c3656ae7c)"><g clip-path="url(#cfae8974cc)"><g clip-path="url(#3bb6a17365)"><path fill="#273f4f" d="M 246.546875 231.335938 L 239.214844 236.835938 L 231.886719 242.335938 L 235.132812 243.21875 L 222.988281 263.078125 L 230.398438 264.5625 L 242.257812 245.15625 L 245.5 246.039062 L 246.546875 231.335938 " fill-opacity="1" fill-rule="nonzero"/></g></g></g><g clip-path="url(#6e4cec143f)"><g clip-path="url(#5acda6333f)"><g clip-path="url(#4ad6cfd4cb)"><path fill="#273f4f" d="M 263.109375 237.058594 L 255.78125 242.5625 L 248.449219 248.058594 L 251.695312 248.941406 L 240.839844 266.71875 L 248.246094 268.203125 L 258.824219 250.878906 L 262.066406 251.761719 L 262.585938 244.414062 L 263.109375 237.058594 " fill-opacity="1" fill-rule="nonzero"/></g></g></g><g fill="#1a3353" fill-opacity="1"><g transform="translate(253.05282, 203.099939)"><g><path d="M 6.1875 1.640625 C 7.140625 1.859375 8.203125 1.859375 9.078125 1.6875 L 13.515625 -8.625 L 8.75 -9.65625 L 7.515625 -6.75 L 9.1875 -6.390625 L 7.0625 -1.5 C 6.921875 -1.5 6.78125 -1.53125 6.671875 -1.5625 C 5.75 -1.75 5.015625 -2.90625 5.609375 -5.609375 C 6 -7.40625 7.78125 -12.421875 10.453125 -14.140625 C 11.15625 -14.578125 11.859375 -14.71875 12.53125 -14.5625 C 13.4375 -14.375 14 -13.875 14.71875 -13.078125 L 16.140625 -16.328125 C 15.6875 -16.828125 14.78125 -17.484375 13.328125 -17.796875 C 11.6875 -18.15625 10.125 -17.828125 8.609375 -16.84375 C 5.046875 -14.546875 2.875 -9.40625 2.203125 -6.3125 C 1.140625 -1.484375 3 0.953125 6.1875 1.640625 Z M 6.1875 1.640625 "/></g></g></g><g fill="#1a3353" fill-opacity="1"><g transform="translate(264.63609, 205.628502)"><g><path d="M 4.125 1.1875 C 5.203125 1.4375 6.328125 1.234375 7.40625 0.546875 C 10.3125 -1.3125 11.90625 -5.859375 12.359375 -7.921875 C 13.0625 -11.203125 11.96875 -13.25 9.65625 -13.75 C 8.578125 -13.984375 7.453125 -13.8125 6.359375 -13.109375 C 3.484375 -11.25 1.875 -6.703125 1.421875 -4.640625 C 0.703125 -1.359375 1.796875 0.6875 4.125 1.1875 Z M 4.9375 -1.6875 C 4.421875 -1.796875 4.25 -2.359375 4.484375 -3.453125 C 4.875 -5.234375 6.6875 -9.796875 8.078125 -10.6875 C 8.390625 -10.890625 8.609375 -10.9375 8.828125 -10.890625 C 9.359375 -10.78125 9.53125 -10.203125 9.296875 -9.125 C 8.90625 -7.34375 7.09375 -2.78125 5.6875 -1.890625 C 5.390625 -1.6875 5.171875 -1.640625 4.9375 -1.6875 Z M 4.9375 -1.6875 "/></g></g></g><g fill="#1a3353" fill-opacity="1"><g transform="translate(275.467563, 207.992953)"><g><path d="M -0.4375 -0.09375 L 2.953125 0.640625 L 5.5 -5.21875 L 5.53125 -5.21875 C 7.421875 -4.796875 9.296875 -4.96875 10.9375 -6.015625 C 12.96875 -7.3125 14.140625 -9.578125 14.5625 -11.546875 C 14.953125 -13.296875 14.703125 -14.765625 13.984375 -15.859375 C 13.234375 -17 11.953125 -17.8125 10.265625 -18.1875 L 7.59375 -18.765625 Z M 10.9375 -14.25 C 11.21875 -13.765625 11.34375 -13.046875 11.15625 -12.1875 C 10.890625 -10.96875 10.109375 -9.328125 9 -8.625 C 8.265625 -8.15625 7.53125 -8.0625 6.84375 -8.21875 L 6.78125 -8.21875 L 9.6875 -15 L 9.828125 -14.984375 C 10.328125 -14.875 10.71875 -14.59375 10.9375 -14.25 Z M 10.9375 -14.25 "/></g></g></g><g fill="#1a3353" fill-opacity="1"><g transform="translate(286.493939, 210.399949)"><g><path d="M -0.5 -0.109375 L 2.78125 0.609375 L 8.9375 -13.6875 L 5.65625 -14.40625 Z M 6.203125 -15.765625 L 9.546875 -15.03125 L 10.90625 -18.171875 L 7.5625 -18.90625 Z M 6.203125 -15.765625 "/></g></g></g><g fill="#1a3353" fill-opacity="1"><g transform="translate(291.979293, 211.597372)"><g><path d="M -0.53125 -0.109375 L 2.765625 0.609375 L 7.125 -9.5 C 7.53125 -10.5 8.28125 -11.046875 8.9375 -10.90625 C 9.46875 -10.78125 9.6875 -10.3125 9.546875 -9.671875 C 9.46875 -9.34375 9.34375 -9.046875 9.109375 -8.453125 L 4.96875 1.09375 L 8.28125 1.8125 L 12.8125 -8.75 C 13.0625 -9.359375 13.21875 -9.78125 13.328125 -10.265625 C 13.65625 -11.78125 13.109375 -13.0625 11.5625 -13.40625 C 10.40625 -13.65625 9.296875 -13.015625 8.1875 -11.984375 L 8.90625 -13.6875 L 5.625 -14.40625 Z M -0.53125 -0.109375 "/></g></g></g><g fill="#1a3353" fill-opacity="1"><g transform="translate(302.838604, 213.967899)"><g><path d="M -1.65625 3.515625 C 0.203125 3.921875 1.640625 3.21875 2.625 0.921875 L 8.9375 -13.6875 L 5.65625 -14.40625 L -0.390625 -0.328125 C -0.734375 0.4375 -1.0625 0.828125 -1.75 0.6875 C -1.875 0.65625 -2.140625 0.578125 -2.40625 0.4375 L -3.4375 2.90625 C -2.921875 3.15625 -2.34375 3.375 -1.65625 3.515625 Z M 6.203125 -15.765625 L 9.546875 -15.03125 L 10.90625 -18.171875 L 7.5625 -18.90625 Z M 6.203125 -15.765625 "/></g></g></g><g fill="#1a3353" fill-opacity="1"><g transform="translate(308.296107, 215.159242)"><g><path d="M 1.875 0.65625 C 2.796875 0.859375 3.84375 0.421875 4.8125 -0.515625 L 4.203125 0.921875 L 7.5 1.640625 L 11.015625 -6.515625 C 11.515625 -7.671875 11.6875 -8.234375 11.8125 -8.796875 C 12.40625 -11.53125 11.171875 -13.375 8.4375 -13.96875 C 7.453125 -14.1875 6.671875 -14.15625 5.671875 -14.015625 L 4.390625 -11.046875 C 5.453125 -11.203125 6.28125 -11.234375 6.96875 -11.078125 C 8.109375 -10.828125 8.703125 -10.21875 8.4375 -8.953125 C 8.359375 -8.625 8.21875 -8.265625 8.046875 -7.875 L 7.8125 -7.328125 C 7.28125 -7.921875 6.609375 -8.359375 5.828125 -8.53125 C 5 -8.71875 4.1875 -8.59375 3.40625 -8.09375 C 1.84375 -7.09375 0.71875 -4.625 0.375 -3.046875 C -0.078125 -0.984375 0.59375 0.375 1.875 0.65625 Z M 4.203125 -1.65625 C 3.765625 -1.75 3.5 -2.09375 3.703125 -2.984375 C 3.796875 -3.421875 4.34375 -5.109375 5.203125 -5.65625 C 5.4375 -5.8125 5.671875 -5.84375 5.890625 -5.796875 C 6.265625 -5.71875 6.578125 -5.5 6.875 -5.171875 L 5.84375 -2.796875 C 5.484375 -1.890625 4.796875 -1.515625 4.203125 -1.65625 Z M 4.203125 -1.65625 "/></g></g></g><g fill="#1a3353" fill-opacity="1"><g transform="translate(318.347932, 217.353499)"><g><path d="M -0.53125 -0.109375 L 2.765625 0.609375 L 7.125 -9.5 C 7.53125 -10.5 8.25 -11.046875 8.921875 -10.90625 C 9.4375 -10.796875 9.625 -10.328125 9.484375 -9.6875 C 9.40625 -9.359375 9.296875 -9.046875 9.0625 -8.46875 L 4.9375 1.078125 L 8.21875 1.796875 L 12.578125 -8.296875 C 13 -9.3125 13.6875 -9.859375 14.359375 -9.71875 C 14.90625 -9.59375 15.09375 -9.125 14.953125 -8.484375 C 14.875 -8.15625 14.75 -7.859375 14.5 -7.28125 L 10.375 2.265625 L 13.671875 2.984375 L 18.21875 -7.5625 C 18.46875 -8.1875 18.625 -8.609375 18.734375 -9.09375 C 19.0625 -10.609375 18.515625 -11.890625 16.984375 -12.21875 C 15.875 -12.453125 14.671875 -12.171875 13.359375 -11.109375 C 13.359375 -12.25 12.78125 -13.140625 11.53125 -13.40625 C 10.40625 -13.65625 9.296875 -13.015625 8.1875 -11.984375 L 8.90625 -13.6875 L 5.625 -14.40625 Z M -0.53125 -0.109375 "/></g></g></g></svg>